# xmcd
#
# Track frame offsets:
#	150
#	12215
#	29637
#	44717
#	59855
#	75037
#	91797
#	108182
#	124225
#	141197
#	160762
#	175180
#
# Disc length: 2546 seconds
#
# Revision: 3
# Processed by: cddbd v1.5.2PL0 Copyright (c) Steve Scherf et al.
# Submitted via: EZCDAudioConverter 6.0.7.1
#
DISCID=9809f00c
DTITLE=Larry Gatlin And The Gatlin Brothers - Adios
DYEAR=1992
DGENRE=Country
TTITLE0=Pretty Woman Have Mercy
TTITLE1=Heartbreak Ridge and New Hope Road
TTITLE2=Star Spangled Broken Heart
TTITLE3=Just A Little To The Side Of The Storm
TTITLE4=Billy Joe Willis
TTITLE5=Half Moon Hotel
TTITLE6=Already On Fire
TTITLE7=What Are We Gonna Call It
TTITLE8=Enough Arms To Go Around
TTITLE9=Rock Of Love
TTITLE10=One Dream Per Customer
TTITLE11=Adios
EXTD=
EXTT0=
EXTT1=
EXTT2=
EXTT3=
EXTT4=
EXTT5=
EXTT6=
EXTT7=
EXTT8=
EXTT9=
EXTT10=
EXTT11=
PLAYORDER=
